<svg id="Layer_1" data-name="Layer 1" xmlns="http://www.w3.org/2000/svg" viewBox="0 0 728.18 150"><defs><style>.cls-1{fill:#183729;}.cls-2{fill:#5bb193;}</style></defs><title>Outline web assets</title><path class="cls-1" d="M151.8,67.21C148,32.39,119.69,5.3,84.46,1.21v30c24.49,4.63,40.86,27.26,36.68,51.16-3.21,18.34-17.86,32.76-36.68,36.32v30.09C126.14,143.93,156.21,107.66,151.8,67.21Z"/><path class="cls-2" d="M1.31,82.79a74.34,74.34,0,0,0,65,66V1.21A74.32,74.32,0,0,0,1.31,82.79Z"/><g id="ART"><path class="cls-1" d="M218.88,75.57v-.91c0-33.76,21.13-55.19,51.69-55.19S322.2,40.9,322.2,74.66v.91c0,33.75-21.13,55.19-51.68,55.19S218.88,109.32,218.88,75.57Zm79.51.75V73.85c0-22.49-11.56-36-27.82-36s-27.83,13.53-27.83,36v2.47c0,22.51,11.56,36,27.83,36s27.77-13.53,27.77-36Z"/><path class="cls-1" d="M404.59,128.32H382.85v-11.7a27,27,0,0,1-24,13.83c-16.43,0-27.19-11.13-27.19-29.8V51.71H354V98.37c0,9.12,4.7,14.6,12.92,14.6,9.27,0,15.35-7.42,15.35-19.16V51.71h22.35Z"/><path class="cls-1" d="M428.6,102.17V69.33H415.39V51.71h13.24V29.46h22.18V51.71h22.51V69.33H450.79v38c0,2.12.91,3,3,3h19.46v17.93h-17C438.33,128.32,428.6,119.05,428.6,102.17Z"/><path class="cls-1" d="M486.67,18.87H509V128.32H486.67Z"/><path class="cls-1" d="M524.51,30.11a12.47,12.47,0,0,1,24.93-.78q0,.39,0,.78a12.47,12.47,0,0,1-24.93,0Zm1.24,21.6h22.36v76.62H525.72Z"/><path class="cls-1" d="M564.79,51.71h21.74v11.7a27,27,0,0,1,24-13.84c16.41,0,27.19,11.12,27.19,29.8v48.95H615.43V81.61c0-9.12-4.72-14.59-12.93-14.59-9.27,0-15.35,7.41-15.35,19.16v42.1H564.79Z"/><path class="cls-1" d="M649.46,90.77V90c0-24.62,16-40.79,39.55-40.79,22.25,0,38.32,15.66,38.32,41.36v5.16h-55.5c1.24,12,7.42,17.64,17.49,17.64,7.29,0,12.46-3.2,14.75-8.65h22.49c-3.34,15.35-18.09,26-37.4,26C664.67,130.76,649.46,115.85,649.46,90.77Zm23-9.72h32.39C702.72,71,697.1,66,688.89,66S674.39,70.85,672.46,81.05Z"/></g></svg>